<svg xmlns="http://www.w3.org/2000/svg" width="213.07999999999998" height="35" viewBox="0 0 213.07999999999998 35"><rect class="svg__rect" x="0" y="0" width="115.8" height="35" fill="#F4F512"/><rect class="svg__rect" x="113.8" y="0" width="99.28" height="35" fill="#455FDC"/><path class="svg__text" d="M13.95 18.00L13.95 18.00L13.95 17.52Q13.95 16.28 14.39 15.32Q14.83 14.37 15.64 13.86Q16.44 13.35 17.49 13.35Q18.53 13.35 19.34 13.85Q20.14 14.35 20.58 15.29Q21.02 16.23 21.03 17.48L21.03 17.48L21.03 17.96Q21.03 19.21 20.59 20.16Q20.16 21.10 19.35 21.61Q18.55 22.12 17.50 22.12L17.50 22.12Q16.46 22.12 15.65 21.61Q14.84 21.10 14.40 20.17Q13.95 19.23 13.95 18.00ZM15.43 17.46L15.43 17.96Q15.43 19.36 15.98 20.13Q16.53 20.90 17.50 20.90L17.50 20.90Q18.48 20.90 19.01 20.15Q19.54 19.40 19.54 17.96L19.54 17.96L19.54 17.51Q19.54 16.09 19.01 15.34Q18.47 14.58 17.49 14.58L17.49 14.58Q16.53 14.58 15.98 15.33Q15.44 16.09 15.43 17.46L15.43 17.46ZM26.27 22L24.73 22L27.95 13.47L29.28 13.47L32.51 22L30.96 22L30.27 20.01L26.96 20.01L26.27 22ZM28.61 15.28L27.38 18.82L29.85 18.82L28.61 15.28ZM37.95 22L36.47 22L36.47 13.47L37.95 13.47L37.95 17.47L38.77 16.46L41.26 13.47L43.06 13.47L39.89 17.25L43.24 22L41.48 22L38.91 18.31L37.95 19.34L37.95 22ZM49.64 18.95L46.57 18.95L46.57 17.80L49.64 17.80L49.64 18.95ZM56.40 22L53.94 22L53.94 13.47L56.46 13.47Q57.59 13.47 58.47 13.97Q59.35 14.48 59.83 15.40Q60.31 16.33 60.31 17.52L60.31 17.52L60.31 17.95Q60.31 19.16 59.82 20.08Q59.34 21.00 58.45 21.50Q57.55 22 56.40 22L56.40 22ZM55.43 14.66L55.43 20.82L56.39 20.82Q57.56 20.82 58.18 20.09Q58.81 19.36 58.82 17.99L58.82 17.99L58.82 17.52Q58.82 16.13 58.22 15.40Q57.61 14.66 56.46 14.66L56.46 14.66L55.43 14.66ZM76.10 22L70.75 22L70.75 13.47L72.23 13.47L72.23 20.82L76.10 20.82L76.10 22ZM81.79 22L80.32 22L80.32 13.47L81.79 13.47L81.79 22ZM88.29 14.66L85.65 14.66L85.65 13.47L92.42 13.47L92.42 14.66L89.76 14.66L89.76 22L88.29 22L88.29 14.66ZM101.75 22L96.17 22L96.17 13.47L101.71 13.47L101.71 14.66L97.65 14.66L97.65 17.02L101.16 17.02L101.16 18.19L97.65 18.19L97.65 20.82L101.75 20.82L101.75 22Z" fill="#000000"/><path class="svg__text" d="M127.56 17.80L127.56 17.80Q127.56 16.54 128.16 15.54Q128.76 14.55 129.81 13.99Q130.86 13.43 132.18 13.43L132.18 13.43Q133.33 13.43 134.25 13.84Q135.18 14.25 135.79 15.02L135.79 15.02L134.28 16.39Q133.47 15.40 132.30 15.40L132.30 15.40Q131.61 15.40 131.08 15.70Q130.55 16 130.25 16.54Q129.96 17.09 129.96 17.80L129.96 17.80Q129.96 18.51 130.25 19.05Q130.55 19.60 131.08 19.90Q131.61 20.20 132.30 20.20L132.30 20.20Q133.47 20.20 134.28 19.22L134.28 19.22L135.79 20.58Q135.18 21.35 134.26 21.76Q133.33 22.17 132.18 22.17L132.18 22.17Q130.86 22.17 129.81 21.61Q128.76 21.05 128.16 20.05Q127.56 19.06 127.56 17.80ZM141.75 22L139.32 22L143.03 13.60L145.37 13.60L149.09 22L146.62 22L145.96 20.37L142.41 20.37L141.75 22ZM144.18 15.93L143.10 18.61L145.26 18.61L144.18 15.93ZM155.44 22L153.24 22L153.24 13.60L155.20 13.60L158.15 18.45L161.03 13.60L162.99 13.60L163.01 22L160.83 22L160.81 17.55L158.64 21.17L157.59 21.17L155.44 17.67L155.44 22ZM174.92 22L168.17 22L168.17 13.60L174.76 13.60L174.76 15.44L170.53 15.44L170.53 16.85L174.26 16.85L174.26 18.63L170.53 18.63L170.53 20.17L174.92 20.17L174.92 22ZM182.10 22L179.72 22L179.72 13.60L183.56 13.60Q184.71 13.60 185.54 13.98Q186.38 14.35 186.84 15.06Q187.30 15.76 187.30 16.71L187.30 16.71Q187.30 17.62 186.87 18.30Q186.44 18.98 185.65 19.36L185.65 19.36L187.46 22L184.92 22L183.39 19.77L182.10 19.77L182.10 22ZM182.10 15.47L182.10 17.93L183.42 17.93Q184.15 17.93 184.52 17.61Q184.89 17.29 184.89 16.71L184.89 16.71Q184.89 16.12 184.52 15.79Q184.15 15.47 183.42 15.47L183.42 15.47L182.10 15.47ZM193.50 22L191.08 22L194.78 13.60L197.13 13.60L200.84 22L198.38 22L197.71 20.37L194.16 20.37L193.50 22ZM195.94 15.93L194.86 18.61L197.02 18.61L195.94 15.93Z" fill="#000000" x="126.8"/></svg>